# This file uses centimeters as units for non-parametric coordinates.

v -0.500000 -1.000000 -0.866026
v -0.500000 -1.000000 0.866025
v 1.000000 -1.000000 0.000000
v -0.500000 106.405190 -0.866026
v -0.500000 106.405190 0.866025
v 1.000000 106.405190 0.000000
vt 0.375000 0.312500
vt 0.458333 0.312500
vt 0.541667 0.312500
vt 0.625000 0.312500
vt 0.375000 0.688440
vt 0.458333 0.688440
vt 0.541667 0.688440
vt 0.625000 0.688440
vn -0.500000 0.000000 -0.866026
vn -0.500000 0.000000 0.866025
vn -0.500000 0.000000 0.866025
vn -0.500000 0.000000 -0.866026
vn 1.000000 0.000000 0.000000
vn 1.000000 0.000000 0.000000
s 1
f 1/1/1 2/2/2 5/6/3 4/5/4
f 2/2/2 3/3/5 6/7/6 5/6/3
f 3/3/5 1/4/1 4/8/4 6/7/6
